# AST/ASF file generated using VICON BodyLanguage
# -----------------------------------------------
:version 1.10
:name VICON
:units
  mass 1.0
  length 0.45
  angle deg
:documentation
   .ast/.asf automatically generated from VICON data using
   VICON BodyBuilder and BodyLanguage model FoxedUp or BRILLIANT.MOD
:root
   order TX TY TZ RX RY RZ
   axis XYZ
   position 0 0 0  
   orientation 0 0 0 
:bonedata
  begin
     id 1 
     name lhipjoint
     direction 0.543289 -0.788407 0.288535 
     length 2.57127 
     axis 0 0 0  XYZ
  end
  begin
     id 2 
     name lfemur
     direction 0.34202 -0.939693 0  
     length 8.47298  
     axis 0 0 20  XYZ
    dof rx ry rz
    limits (-160.0 20.0)
           (-70.0 70.0)
           (-60.0 70.0)
  end
  begin
     id 3 
     name ltibia
     direction 0.34202 -0.939693 0   
     length 8.13367   
     axis 0 0 20   XYZ
    dof rx
    limits (-10.0 170.0)
  end
  begin
     id 4 
     name lfoot
     direction 0.114037 -0.313314 0.942778   
     length 2.67113   
     axis -90 7.62852e-016 20   XYZ
    dof rx rz
    limits (-45.0 90.0)
           (-70.0 20.0)
  end
  begin
     id 5 
     name ltoes
     direction 1.536e-011 -4.21847e-011 1   
     length 1.32217   
     axis -90 7.62852e-016 20   XYZ
    dof rx
    limits (-90.0 20.0)
  end
  begin
     id 6 
     name rhipjoint
     direction -0.571293 -0.770752 0.282074   
     length 2.63017  
     axis 0 0 0  XYZ 
  end
  begin
     id 7 
     name rfemur
     direction -0.34202 -0.939693 0   
     length 8.60885   
     axis 0 0 -20   XYZ
    dof rx ry rz
    limits (-160.0 20.0)
           (-70.0 70.0)
           (-70.0 60.0)
  end
  begin
     id 8 
     name rtibia
     direction -0.34202 -0.939693 0   
     length 8.07673   
     axis 0 0 -20   XYZ
    dof rx
    limits (-10.0 170.0)
 end
 begin
     id 9 
     name rfoot
     direction -0.121336 -0.333368 0.934956   
     length 2.81602  
     axis -90 -7.62852e-016 -20   XYZ
    dof rx rz
    limits (-45.0 90.0)
           (-20.0 70.0)
  end
  begin
     id 10 
     name rtoes
     direction -1.53491e-011 -4.21808e-011 1   
     length 1.38905   
     axis -90 -7.62852e-016 -20   XYZ
    dof rx
    limits (-90.0 20.0)
  end
  begin
     id 11 
     name lowerback
     direction 0.0136776 0.999869 -0.00861835   
     length 2.14087   
     axis 0 0 0   XYZ
    dof rx ry rz
    limits (-20.0 45.0)
           (-30.0 30.0)
           (-30.0 30.0)
  end
  begin
     id 12 
     name upperback
     direction -0.00789158 0.999804 0.0181308   
     length 2.14151   
     axis 0 0 0   XYZ
    dof rx ry rz
    limits (-20.0 45.0)
           (-30.0 30.0)
           (-30.0 30.0)
  end
  begin
     id 13 
     name thorax
     direction -0.0135231 0.999666 0.0220247   
     length 2.13644   
     axis 0 0 0   XYZ
    dof rx ry rz
    limits (-20.0 45.0)
           (-30.0 30.0)
           (-30.0 30.0)
  end
  begin
     id 14 
     name lowerneck
     direction -0.0392259 0.997317 0.0618018   
     length 1.65045   
     axis 0 0 0   XYZ
    dof rx ry rz
    limits (-20.0 45.0)
           (-30.0 30.0)
           (-30.0 30.0)
  end
  begin
     id 15 
     name upperneck
     direction 0.0765547 0.994276 -0.0745319   
     length 1.66045   
     axis 0 0 0   XYZ
    dof rx ry rz
    limits (-20.0 45.0)
           (-30.0 30.0)
           (-30.0 30.0)
  end
  begin
     id 16
     name head
     direction 0.0241564 0.999031 -0.036785  
     length 1.66594  
     axis 0 0 0   XYZ
    dof rx ry rz
    limits (-20.0 45.0)
           (-30.0 30.0)
           (-30.0 30.0)
  end
  begin
     id 17 
     name lclavicle
     direction 0.967398 0.249018 0.0461573  
     length 3.75176  
     axis 0 0 0   XYZ
    dof ry rz
    limits (-20.0 10.0)
           (0.0 20.0)
  end
  begin
     id 18 
     name lhumerus
     direction 1 -4.48963e-011 -3.05005e-027   
     length 5.93342   
     axis 180 -30 -90   XYZ
    dof rx ry rz
    limits (-60.0 90.0)
           (-90.0 90.0)
           (-90.0 90.0)
  end
  begin
     id 19
     name lradius
     direction 1 -4.48957e-011 1.07006e-026   
     length 3.94763   
     axis 180 -30 -90   XYZ
    dof rx
    limits (-10.0 170.0)
  end
  begin
     id 20
     name lwrist
     direction 1 -4.48978e-011 1.92422e-026   
     length 1.97382   
     axis -1.18182e-014 90 90   XYZ
    dof ry
    limits (-180.0 0.0)
 end
  begin
     id 21 
     name lhand
     direction 1 -4.48931e-011 3.84844e-026   
     length 0.560187   
     axis -2.45563e-014 90 90   XYZ
    dof rx rz
    limits (-90.0 90.0)
           (-45.0 45.0)
  end
  begin
     id 22 
     name lfingers
     direction 1 -4.48952e-011 7.69687e-026   
     length 0.451637   
     axis -4.91126e-014 90 90   XYZ
    dof rx
    limits (0.0 90.0)
  end
  begin
     id 23
     name lthumb
     direction 0.707107 -6.34901e-011 0.707107   
     length 0.648463   
     axis -90 45 2.85299e-015   XYZ
    dof rx rz
    limits (-45.0 45.0)
           (-45.0 45.0)
  end
  begin
     id 24 
     name rclavicle
     direction -0.965946 0.258716 0.00371831   
     length 3.63667  
     axis 0 0 0   XYZ 
    dof ry rz
    limits (-10.0 20.0)
           (-20.0 0.0)
  end
  begin
     id 25 
     name rhumerus
     direction -1 -4.48966e-011 -1.78361e-028  
     length 6.28647   
     axis 180 30 90   XYZ
    dof rx ry rz
    limits (-90.0 60.0)
           (-90.0 90.0)
           (-90.0 90.0)
  end
  begin
     id 26 
     name rradius
     direction -1 -4.48961e-011 1.05248e-026   
     length 3.81645   
     axis 180 30 90   XYZ
    dof rx
    limits (-10.0 170.0)
  end
  begin
     id 27 
     name rwrist
     direction -1 -4.48979e-011 1.92422e-026   
     length 1.90822   
     axis -1.18182e-014 -90 -90   XYZ
    dof ry
    limits (-180.0 0.0)
  end
  begin
     id 28
     name rhand
     direction -1 -4.48937e-011 3.84844e-026   
     length 0.646185   
     axis -2.45563e-014 -90 -90   XYZ
    dof rx rz
    limits (-90.0 90.0)
           (-45.0 45.0)
  end
  begin
     id 29
     name rfingers
     direction -1 -4.48953e-011 7.69687e-026   
     length 0.520971   
     axis -4.91126e-014 -90 -90   XYZ
    dof rx
    limits (0.0 90.0)
  end
  begin
     id 30
     name rthumb
     direction -0.707107 -6.3494e-011 0.707107   
     length 0.748013   
     axis -90 -45 -2.85299e-015   XYZ
    dof rx rz
    limits (-45.0 45.0)
           (-45.0 45.0)
  end
:hierarchy
  begin
    root lhipjoint rhipjoint lowerback
    lhipjoint lfemur
    lfemur ltibia
    ltibia lfoot
    lfoot ltoes
    rhipjoint rfemur
    rfemur rtibia
    rtibia rfoot
    rfoot rtoes
    lowerback upperback
    upperback thorax
    thorax lowerneck lclavicle rclavicle
    lowerneck upperneck
    upperneck head
    lclavicle lhumerus
    lhumerus lradius
    lradius lwrist
    lwrist lhand lthumb
    lhand lfingers
    rclavicle rhumerus
    rhumerus rradius
    rradius rwrist
    rwrist rhand rthumb
    rhand rfingers
  end

#!OML:ASF H:\HAZMAT1\Patient Classification 1\Patient 3\Session 1\dancer.ASF
:FULLY-SPECIFIED
:DEGREES
208
upperback -1.537700 -3.357490 0.460075
rfoot -29.713800 -21.856800
lradius 16.557100
lthumb 19.162600 37.553398
rradius 40.174801
lwrist -26.155800
rhand -10.282400 -8.443620
rhumerus -387.287994 13.783800 -434.282990
lowerneck -0.602675 -12.101400 -9.736350
lhand -6.696580 8.477490
ltibia 46.002499
head 4.374060 -8.233050 3.768710
rwrist 2.575870
lfingers 7.125020
rtoes -20.460400
lowerback 0.741821 -2.572360 3.429850
rfingers 7.125020
lclavicle 0.000000 0.000000
upperneck 8.650350 -16.763599 10.231000
rfemur -6.693060 -7.903440 15.578300
thorax -2.164750 -1.725700 -1.352540
rclavicle 0.000000 0.000000
rtibia 26.411600
lfoot -21.668600 6.559980
lhumerus -62.982498 15.654600 41.445202
rthumb 15.711700 -37.825802
root 19.136499 17.666201 37.802799 837.646973 96.766197 -982.809021
ltoes -10.748900
lfemur -60.502102 -12.013700 12.414500
209
upperback -1.565430 -5.125140 -0.164718
rfoot -30.584499 -16.927601
lradius 18.314600
lthumb 19.074400 36.523201
rradius 42.912399
lwrist -23.714701
rhand -10.559800 -10.088100
rhumerus -403.843994 9.083710 -435.704010
lowerneck -2.175060 -9.468470 -6.302870
lhand -6.788350 7.438490
ltibia 56.605499
head 4.344460 -6.371520 2.315050
rwrist 2.185080
lfingers 7.125020
rtoes -12.171100
lowerback -0.087686 -3.863280 3.602240
rfingers 7.125020
lclavicle -0.000000 -0.000000
upperneck 10.529400 -13.019100 6.436170
rfemur -20.270800 17.660500 14.810700
thorax -1.890590 -2.615630 -2.082700
rclavicle -0.000000 -0.000000
rtibia 38.006199
lfoot -28.292601 -7.300340
lhumerus -56.530602 13.564200 63.580799
rthumb 15.444500 -39.491100
root 17.144600 18.215000 39.957901 903.705017 127.703003 -911.830017
ltoes -7.881270
lfemur -42.531101 -15.579900 -9.381830
210
upperback -1.277170 -4.926290 -1.479150
rfoot -24.831699 -13.534400
lradius 26.053801
lthumb 14.312700 39.678299
rradius 35.154099
lwrist -13.620700
rhand -20.631001 -14.273100
rhumerus -411.709991 -6.809860 -411.847992
lowerneck -3.507080 -3.567090 -2.206830
lhand -11.734600 10.191700
ltibia 46.620602
head 3.291900 -2.377300 1.401230
rwrist 1.174090
lfingers 7.125020
rtoes -6.075980
lowerback -1.575670 -3.656630 4.008170
rfingers 7.125020
lclavicle 0.000000 0.000000
upperneck 7.783210 -4.933520 3.714760
rfemur -24.572201 26.592100 15.210700
thorax -0.900943 -2.511040 -3.778510
rclavicle 0.000000 0.000000
rtibia 40.881901
lfoot -24.529400 0.345276
lhumerus -45.513000 9.769770 61.130199
rthumb 5.730600 -44.175598
root 16.732901 18.653299 41.359798 907.872986 158.276993 -905.187012
ltoes 5.117160
lfemur -31.292101 -23.396299 -14.298800
211
upperback -1.667110 -3.631220 -1.425540
rfoot -23.435801 -21.921600
lradius 33.515900
lthumb 10.219100 44.526901
rradius 23.636200
lwrist -4.362650
rhand -25.746799 -26.725901
rhumerus -415.725006 -20.599501 -404.605988
lowerneck -4.693530 0.609328 1.297550
lhand -15.980400 14.795100
ltibia 41.319099
head 2.731610 0.386311 0.428086
rwrist 8.162100
lfingers 7.125020
rtoes 7.428050
lowerback -2.458940 -2.641300 5.474800
rfingers 7.125020
lclavicle -0.000000 -0.000000
upperneck 6.044920 0.585603 1.964710
rfemur -23.707199 12.893300 24.360300
thorax -0.776121 -1.883340 -4.588550
rclavicle -0.000000 -0.000000
rtibia 39.222401
lfoot -24.124001 10.983100
lhumerus -41.708500 10.301200 63.492500
rthumb 0.790259 -56.704201
root 16.747999 18.948999 42.116600 909.138977 178.503006 -905.252991
ltoes 9.745820
lfemur -23.540199 -20.218100 -15.278300
212
upperback -2.100570 -4.645490 -0.925613
rfoot -25.466101 -19.567499
lradius 37.400700
lthumb 10.913300 43.826900
rradius 26.519300
lwrist -8.548060
rhand -15.375700 -15.979100
rhumerus -415.816010 -17.633301 -428.066010
lowerneck -4.108130 2.416940 3.116200
lhand -15.260700 14.130500
ltibia 41.701099
head 1.960130 1.561340 -0.540735
rwrist 10.561800
lfingers 7.125020
rtoes 11.028700
lowerback -2.386240 -3.401670 6.298810
rfingers 7.125020
lclavicle -0.000000 0.000000
upperneck 3.846330 3.054710 -0.324261
rfemur -22.491800 15.898800 23.995100
thorax -1.414280 -2.428330 -4.506140
rclavicle -0.000000 0.000000
rtibia 38.081699
lfoot -27.639999 12.459800
lhumerus -38.725201 7.829830 73.015900
rthumb 10.802400 -45.681301
root 16.638800 18.810301 42.342999 909.168030 184.628006 -905.020996
ltoes 11.288800
lfemur -21.619699 -17.151699 -16.396000
213
upperback -2.552000 -4.781730 -0.316803
rfoot -26.493999 -19.799801
lradius 36.146099
lthumb 14.991900 41.467499
rradius 33.053600
lwrist -10.249100
rhand -13.868500 -12.955800
rhumerus -413.118988 -8.635610 -444.496002
lowerneck -3.812130 1.649590 1.771000
lhand -11.029700 12.030200
ltibia 41.599201
head 1.783050 1.074210 -0.028639
rwrist 11.430400
lfingers 7.125020
rtoes 11.126500
lowerback -2.107870 -3.529150 6.831450
rfingers 7.125020
lclavicle 0.000000 -0.000000
upperneck 3.622010 2.072990 0.686906
rfemur -21.559000 14.764700 23.877399
thorax -2.049030 -2.529800 -4.131420
rclavicle 0.000000 -0.000000
rtibia 38.465099
lfoot -27.792000 12.836300
lhumerus -39.086300 0.802472 81.373901
rthumb 12.255900 -42.576698
root 16.603399 18.781799 42.383099 908.374023 182.863998 -904.502014
ltoes 10.428000
lfemur -20.772600 -18.646700 -17.011000
214
upperback -2.798020 -4.391680 -0.291076
rfoot -27.560400 -21.425600
lradius 26.473301
lthumb 14.052500 42.730900
rradius 35.551601
lwrist -14.834400
rhand -15.578600 -15.440500
rhumerus -411.098999 -2.807840 -446.298004
lowerneck -4.166800 0.408277 0.816898
lhand -12.004600 13.226000
ltibia 41.642899
head 1.878290 0.261246 0.421739
rwrist 8.713130
lfingers 7.125020
rtoes 11.639200
lowerback -1.693700 -3.268290 6.691930
rfingers 7.125020
lclavicle 0.000000 -0.000000
upperneck 3.760850 0.415117 1.749500
rfemur -20.833900 13.344000 24.026800
thorax -2.475530 -2.350750 -3.997920
rclavicle 0.000000 -0.000000
rtibia 38.617199
lfoot -27.126900 11.517800
lhumerus -39.591202 6.500060 75.909500
rthumb 10.606700 -45.152802
root 16.594299 18.777399 42.384201 907.869019 179.287003 -904.202026
ltoes 9.778680
lfemur -20.788300 -20.070999 -17.026100
215
upperback -2.802590 -3.886800 -0.506970
rfoot -28.168699 -22.209101
lradius 22.212900
lthumb 10.439000 46.002499
rradius 35.401001
lwrist -17.642799
rhand -14.066500 -14.992000
rhumerus -410.519989 -2.410680 -446.463013
lowerneck -4.681630 -0.423028 0.531247
lhand -15.752400 16.281700
ltibia 41.830799
head 2.109800 -0.287707 0.585772
rwrist 8.015170
lfingers 7.125020
rtoes 11.864500
lowerback -1.623310 -2.892440 6.479740
rfingers 7.125020
lclavicle -0.000000 -0.000000
upperneck 4.151540 -0.714508 2.216180
rfemur -20.061199 12.010700 24.604900
thorax -2.458640 -2.096030 -4.111280
rclavicle -0.000000 -0.000000
rtibia 38.529301
lfoot -26.731701 10.123900
lhumerus -41.225399 11.242600 68.586800
rthumb 12.065000 -44.624199
root 16.555700 18.769300 42.385601 907.338989 176.856995 -904.296021
ltoes 9.200520
lfemur -20.711901 -20.797400 -16.631500
216
upperback -2.851610 -4.042280 -0.146550
rfoot -28.923000 -23.681601
lradius 24.481501
lthumb 11.877500 45.884399
rradius 34.023201
lwrist -15.378200
rhand -14.157300 -14.299400
rhumerus -410.022003 0.491902 -449.132996
lowerneck -5.746640 -0.849174 -0.220028
lhand -14.260900 16.241301
ltibia 41.844700
head 2.814180 -0.558297 0.556025
rwrist 7.362020
lfingers 7.125020
rtoes 12.145500
lowerback -1.653400 -3.014790 6.212110
rfingers 7.125020
lclavicle 0.000000 0.000000
upperneck 5.650800 -1.237390 1.770240
rfemur -19.601801 11.448600 24.540899
thorax -2.463640 -2.163040 -3.586190
rclavicle 0.000000 0.000000
rtibia 38.412399
lfoot -25.923901 8.040490
lhumerus -41.779800 10.996100 71.888603
rthumb 11.977500 -43.936699
root 16.574301 18.773100 42.376499 907.114014 174.457001 -904.072998
ltoes 9.002320
lfemur -20.957399 -20.785299 -16.689501
217
upperback -2.638540 -3.663100 -0.320599
rfoot -29.056601 -24.359600
lradius 29.115601
lthumb 11.596100 44.469299
rradius 33.086601
lwrist -12.113100
rhand -21.244400 -16.315399
rhumerus -408.360992 1.658100 -450.903015
lowerneck -5.740300 -1.366950 0.214644
lhand -14.552700 14.810200
ltibia 41.925701
head 2.713540 -0.911240 0.344311
rwrist 9.470040
lfingers 7.125020
rtoes 12.324400
lowerback -1.707420 -2.720350 6.436200
rfingers 7.125020
lclavicle 0.000000 0.000000
upperneck 5.363220 -1.939720 1.437360
rfemur -19.507500 11.085200 24.612900
thorax -2.197660 -1.967550 -3.909140
rclavicle 0.000000 0.000000
rtibia 38.185200
lfoot -25.299200 6.098510
lhumerus -40.872200 4.896560 79.307198
rthumb 5.138380 -46.233101
root 16.638500 18.780500 42.321301 907.018005 173.173996 -904.291992
ltoes 9.239420
lfemur -21.368601 -20.107599 -16.434299
218
upperback -2.604990 -3.468750 -0.461200
rfoot -29.014601 -24.805500
lradius 29.273001
lthumb 11.832700 44.314602
rradius 33.876999
lwrist -12.857100
rhand -18.874300 -17.973600
rhumerus -408.029999 2.833320 -451.955994
lowerneck -6.214710 -1.424820 0.269266
lhand -14.307400 14.668900
ltibia 42.005798
head 2.909660 -0.949264 0.615627
rwrist 9.018330
lfingers 7.125020
rtoes 12.618200
lowerback -1.840820 -2.565500 6.396160
rfingers 7.125020
lclavicle -0.000000 0.000000
upperneck 5.636500 -2.092300 2.338580
rfemur -19.661200 10.992200 24.749201
thorax -2.071590 -1.866780 -4.043840
rclavicle -0.000000 0.000000
rtibia 37.954399
lfoot -24.921400 4.685490
lhumerus -40.042900 4.681350 78.794998
rthumb 7.426480 -47.823299
root 16.687901 18.784300 42.240898 907.013000 172.470993 -904.616028
ltoes 9.929700
lfemur -21.879601 -19.652000 -16.009501
219
upperback -2.614330 -3.318360 -0.379736
rfoot -28.939400 -25.078199
lradius 27.386900
lthumb 12.672700 44.742100
rradius 33.483601
lwrist -14.404000
rhand -19.156099 -17.893600
rhumerus -408.381012 -0.266494 -449.959015
lowerneck -5.766660 -1.684740 -0.271752
lhand -13.436200 15.146500
ltibia 42.070499
head 2.537110 -1.108590 0.858653
rwrist 8.425860
lfingers 7.125020
rtoes 12.881800
lowerback -2.498330 -2.417410 6.576030
rfingers 7.125020
lclavicle 0.000000 -0.000000
upperneck 4.718520 -2.398940 2.834230
rfemur -20.175900 11.013000 24.792900
thorax -1.700730 -1.782570 -4.094320
rclavicle 0.000000 -0.000000
rtibia 37.660801
lfoot -24.647600 3.472810
lhumerus -40.565800 8.143440 74.925400
rthumb 7.154440 -47.752602
root 16.746599 18.792500 42.195400 907.450989 172.046005 -904.961975
ltoes 10.525000
lfemur -22.729099 -19.019400 -15.511000
220
upperback -2.511660 -3.173960 -0.186224
rfoot -28.889000 -25.446199
lradius 25.672100
lthumb 12.999100 44.899200
rradius 33.692402
lwrist -15.591700
rhand -19.469500 -18.055799
rhumerus -408.691010 -1.901950 -448.640015
lowerneck -5.733850 -1.721910 -0.296586
lhand -13.097600 15.324200
ltibia 42.137199
head 2.661330 -1.133830 0.921025
rwrist 8.345310
lfingers 7.125020
rtoes 12.631000
lowerback -2.853520 -2.285170 6.824010
rfingers 7.125020
lclavicle -0.000000 0.000000
upperneck 5.091060 -2.468140 3.021250
rfemur -20.198299 11.235100 24.704201
thorax -1.381140 -1.699000 -4.053010
rclavicle -0.000000 0.000000
rtibia 37.491001
lfoot -24.496799 2.880410
lhumerus -41.587700 10.626500 73.503700
rthumb 6.851960 -47.924900
root 16.834600 18.795099 42.187698 907.528015 171.869003 -905.174011
ltoes 10.870800
lfemur -22.929399 -18.595600 -15.523200
221
upperback -2.603730 -3.059140 -0.229532
rfoot -29.127701 -25.638300
lradius 29.858601
lthumb 12.811400 45.287300
rradius 36.146900
lwrist -12.808300
rhand -19.762501 -18.225000
rhumerus -410.451996 1.991710 -450.790009
lowerneck -5.305260 -2.052280 -0.626561
lhand -13.292300 15.700400
ltibia 42.084702
head 2.617670 -1.349900 1.112330
rwrist 7.351510
lfingers 7.125020
rtoes 12.476500
lowerback -2.602960 -2.214960 6.898040
rfingers 7.125020
lclavicle 0.000000 0.000000
upperneck 5.123530 -2.912020 3.482260
rfemur -20.002701 11.453200 24.261700
thorax -1.610160 -1.653310 -4.124980
rclavicle 0.000000 0.000000
rtibia 37.656300
lfoot -24.378500 2.335800
lhumerus -43.981400 0.332687 80.276199
rthumb 6.569080 -48.103100
root 16.931299 18.789000 42.192501 907.370972 171.811996 -905.026978
ltoes 11.570900
lfemur -22.653601 -18.253901 -16.083401
